<?xml version="1.0" encoding="UTF-8"?>
<!DOCTYPE svg PUBLIC "-//W3C//DTD SVG 1.1//EN" "http://www.w3.org/Graphics/SVG/1.1/DTD/svg11.dtd">
<svg version="1.1" xmlns="http://www.w3.org/2000/svg" xmlns:xlink="http://www.w3.org/1999/xlink" x="0" y="0" width="612" height="794" viewBox="0, 0, 612, 794">
  <g id="Layer_1">
    <path d="M376,292 C376,293.08 376,294.16 376,295.3 C376,334.06 344.58,365.47 305.83,365.47 C267.07,365.47 235.66,334.05 235.66,295.3 L235.66,295.3 C235.66,294.16 235.66,293.08 235.66,292 C235.66,-96 0,-96 0,292 L0,794 L612,794 L612,292 C612,-96 376,-96 376,292 z" fill="#654FF0"/>
    <path d="M119.547,739.624 Q119.547,737.386 120.365,735.404 Q121.184,733.423 122.605,731.96 Q124.025,730.495 126.007,729.634 Q127.987,728.772 130.227,728.772 Q132.466,728.772 134.446,729.634 Q136.428,730.495 137.892,731.96 Q139.355,733.423 140.175,735.404 Q140.992,737.386 140.992,739.624 Q140.992,741.95 140.175,743.888 Q139.355,745.825 137.892,747.29 Q136.428,748.753 134.446,749.572 Q132.466,750.39 130.227,750.39 Q127.987,750.39 126.007,749.572 Q124.025,748.753 122.605,747.29 Q121.184,745.825 120.365,743.888 Q119.547,741.95 119.547,739.624 z M172.6,749.098 L184.14,749.098 Q186.724,749.098 187.672,746.17 L207.222,687.088 Q207.911,685.108 208.342,683.041 Q208.772,680.974 209.203,678.993 Q209.632,680.974 210.063,682.998 Q210.494,685.022 211.183,687.002 L230.475,746.17 Q231.336,749.098 233.576,749.098 L245.719,749.098 L273.968,661.854 L262.427,661.854 Q260.79,661.854 259.585,662.759 Q258.379,663.663 257.949,665.041 L240.896,721.194 Q240.12,723.863 239.432,726.965 Q238.743,730.065 238.313,732.906 Q237.623,730.065 236.892,727.137 Q236.159,724.208 235.211,721.194 L217.212,664.697 Q216.781,663.404 215.661,662.543 Q214.541,661.682 212.82,661.682 L206.188,661.682 Q204.551,661.682 203.475,662.543 Q202.399,663.404 201.968,664.697 L183.538,721.194 Q182.59,724.294 181.729,727.179 Q180.867,730.065 180.178,732.992 Q179.748,730.065 179.145,727.179 Q178.543,724.294 177.854,721.194 L161.145,665.041 Q160.715,663.749 159.508,662.801 Q158.304,661.854 156.409,661.854 L144.351,661.854 z M311.948,739.71 Q308.934,739.71 306.35,738.979 Q303.767,738.246 301.871,736.653 Q299.978,735.06 298.858,732.563 Q297.738,730.065 297.738,726.62 Q297.738,723.002 299.848,720.074 Q301.958,717.147 306.608,714.993 Q311.259,712.839 318.666,711.505 Q326.073,710.17 336.667,709.826 L336.667,727.997 Q334.082,730.754 331.369,732.906 Q328.656,735.06 325.685,736.567 Q322.714,738.074 319.355,738.893 Q315.997,739.71 311.948,739.71 z M351.738,693.289 Q351.738,685.97 349.757,679.854 Q347.776,673.739 343.9,669.433 Q340.025,665.127 334.341,662.715 Q328.656,660.305 321.337,660.305 Q311.173,660.305 302.819,663.749 Q294.465,667.194 287.23,674.17 L289.987,679.079 Q290.676,680.285 291.839,681.103 Q293.001,681.921 294.552,681.921 Q296.532,681.921 298.555,680.5 Q300.581,679.079 303.38,677.314 Q306.177,675.549 310.01,674.126 Q313.843,672.706 319.441,672.706 Q327.967,672.706 332.317,677.917 Q336.667,683.127 336.667,693.289 L336.667,700.094 Q321.852,700.438 311.603,702.807 Q301.355,705.175 295.025,708.878 Q288.695,712.581 285.852,717.361 Q283.011,722.142 283.011,727.309 Q283.011,733.251 284.948,737.6 Q286.886,741.95 290.159,744.792 Q293.432,747.635 297.868,749.055 Q302.302,750.476 307.383,750.476 Q312.379,750.476 316.47,749.615 Q320.561,748.753 324.178,747.074 Q327.795,745.395 331.068,742.94 Q334.341,740.486 337.785,737.386 L339.508,745.481 Q339.939,747.721 341.317,748.409 Q342.694,749.098 344.934,749.098 L351.738,749.098 z M428.387,670.639 Q423.392,665.903 416.546,663.19 Q409.699,660.477 401.087,660.477 Q393.68,660.477 387.909,662.543 Q382.14,664.611 378.177,668.099 Q374.216,671.586 372.148,676.194 Q370.082,680.802 370.082,685.797 Q370.082,691.395 372.02,695.313 Q373.957,699.232 377.145,701.903 Q380.331,704.572 384.422,706.337 Q388.512,708.103 392.776,709.481 Q397.039,710.859 401.129,712.108 Q405.221,713.356 408.407,715.035 Q411.594,716.716 413.532,719.084 Q415.469,721.453 415.469,725.069 Q415.469,727.997 414.393,730.581 Q413.316,733.165 411.077,735.146 Q408.837,737.127 405.479,738.29 Q402.121,739.452 397.641,739.452 Q392.389,739.452 388.901,738.246 Q385.412,737.041 382.958,735.577 Q380.503,734.112 378.78,732.906 Q377.059,731.701 375.508,731.701 Q373.957,731.701 373.01,732.304 Q372.064,732.906 371.374,734.026 L367.756,739.883 Q372.924,744.533 380.331,747.505 Q387.737,750.476 396.867,750.476 Q404.876,750.476 410.991,748.322 Q417.106,746.17 421.326,742.423 Q425.546,738.677 427.7,733.553 Q429.852,728.428 429.852,722.4 Q429.852,717.147 427.914,713.4 Q425.977,709.653 422.791,707.069 Q419.603,704.486 415.556,702.763 Q411.508,701.041 407.244,699.619 Q402.981,698.198 398.933,696.95 Q394.886,695.701 391.7,694.065 Q388.512,692.428 386.575,690.189 Q384.637,687.95 384.637,684.591 Q384.637,681.921 385.799,679.638 Q386.963,677.356 389.159,675.635 Q391.355,673.912 394.455,672.922 Q397.555,671.93 401.432,671.93 Q405.91,671.93 409.182,672.922 Q412.456,673.912 414.824,675.074 Q417.192,676.238 418.828,677.184 Q420.465,678.132 421.757,678.132 Q423.909,678.132 424.943,676.238 z M465.077,749.098 L465.077,684.074 Q469.124,678.821 473.991,675.763 Q478.856,672.706 484.54,672.706 Q492.637,672.706 496.857,677.873 Q501.076,683.041 501.076,693.548 L501.076,749.098 L516.407,749.098 L516.407,693.548 Q516.407,688.38 517.913,684.461 Q519.422,680.544 522.005,677.959 Q524.589,675.376 527.99,674.042 Q531.392,672.706 535.181,672.706 Q543.708,672.706 548.187,678.003 Q552.665,683.299 552.665,693.548 L552.665,749.098 L567.995,749.098 L567.995,693.548 Q567.995,685.625 566.014,679.466 Q564.034,673.309 560.287,669.089 Q556.54,664.869 551.158,662.673 Q545.775,660.477 538.885,660.477 Q534.579,660.477 530.402,661.509 Q526.225,662.543 522.522,664.783 Q518.819,667.021 515.847,670.467 Q512.876,673.912 511.067,678.648 Q508.656,670.295 503.186,665.386 Q497.718,660.477 488.848,660.477 Q480.923,660.477 474.938,664.266 Q468.952,668.055 464.129,673.998 L463.01,665.041 Q462.149,661.854 458.875,661.854 L449.746,661.854 L449.746,749.098 z M143.726,475.226 L144.601,566.429 Q144.716,578.571 147.848,588.566 Q150.98,598.56 157.118,605.562 Q163.257,612.562 172.258,616.359 Q181.261,620.155 192.978,620.044 Q207.944,619.899 219.461,613.506 Q230.977,607.112 240.196,596.718 L242.32,612.088 Q243.782,617.298 249.147,617.246 L264.111,617.103 L262.742,474.086 L237.611,474.328 L238.623,579.789 Q230.522,589.186 220.831,594.503 Q211.141,599.819 200.128,599.925 Q185.022,600.07 177.453,591.247 Q169.886,582.424 169.731,566.189 L168.857,474.986 z M288.818,616.866 L311.267,616.651 Q314.09,616.624 315.697,614.985 Q317.306,613.345 318.699,611.356 L351.551,562.33 Q353.496,559.063 354.446,554.959 L390.983,610.663 Q392.132,612.628 393.912,614.236 Q395.692,615.842 398.798,615.812 L422.94,615.581 L372.106,541.377 L419.594,472.585 L396.44,472.806 Q394.322,472.826 392.922,474.04 Q391.522,475.254 390.129,477.243 L359.784,522.717 Q357.423,526.693 356.189,530.657 L320.662,477.344 Q319.516,475.519 318.095,474.545 Q316.673,473.57 313.567,473.6 L289.425,473.831 L338.236,543.114 z M472.918,615.103 L471.909,509.782 Q480.009,500.527 489.63,495.069 Q499.249,489.611 510.401,489.505 Q525.649,489.358 533.147,498.253 Q540.646,507.147 540.801,523.382 L541.673,614.444 L566.802,614.203 L565.93,523.142 Q565.815,511.001 562.613,501.007 Q559.411,491.012 553.342,483.94 Q547.273,476.868 538.272,473.071 Q529.269,469.274 517.552,469.387 Q502.444,469.531 491,475.995 Q479.554,482.459 470.335,492.853 L468.21,477.343 Q466.748,472.133 461.383,472.185 L446.417,472.328 L447.788,615.343 z" fill="#FFFFFF"/>
  </g>
</svg>
